PathFileType	4	(X/Y/Z)	c:/Users/goper/Files/vsCode/490R/osim_files/C08/C08_Fast_04.trc
DataRate	CameraRate	NumFrames	NumMarkers	Units                	OrigDataRate	OrigDataStartFrame	OrigNumFrames
250.00	250.00	6	36	mm	250.0	1182	2362
                Frame#	Time	LPSIS			LASIS			LTH1			LTH2			LTH3			LTH4			LLFE			LMFE			LSH1			LSH2			LSH3			LSH4			LLMAL			LMMAL			LCAL			LMTP5			LTOE			LMTP1			RPSIS			RASIS			RTH1			RTH2			RTH3			RTH4			RLFE			RMFE			RSH1			RSH2			RSH3			RSH4			RLMAL			RMMAL			RCAL			RMTP1			RTOE			RMTP5		
		X1	Y1	Z1	X2	Y2	Z2	X3	Y3	Z3	X4	Y4	Z4	X5	Y5	Z5	X6	Y6	Z6	X7	Y7	Z7	X8	Y8	Z8	X9	Y9	Z9	X10	Y10	Z10	X11	Y11	Z11	X12	Y12	Z12	X13	Y13	Z13	X14	Y14	Z14	X15	Y15	Z15	X16	Y16	Z16	X17	Y17	Z17	X18	Y18	Z18	X19	Y19	Z19	X20	Y20	Z20	X21	Y21	Z21	X22	Y22	Z22	X23	Y23	Z23	X24	Y24	Z24	X25	Y25	Z25	X26	Y26	Z26	X27	Y27	Z27	X28	Y28	Z28	X29	Y29	Z29	X30	Y30	Z30	X31	Y31	Z31	X32	Y32	Z32	X33	Y33	Z33	X34	Y34	Z34	X35	Y35	Z35	X36	Y36	Z36

1182	4.72400	-1094.77148	1041.26929	244.16568	-1302.32666	999.67462	315.40826	-1308.20947	738.75049	400.25421	-1339.85303	667.37164	386.65558	-1369.92078	600.36975	380.56824	-1406.69653	704.39117	365.09909	-1387.98792	555.70966	372.78012	-1404.29224	544.45917	245.56114	-1358.88586	427.63684	388.17557	-1373.03845	382.52594	391.13107	-1417.79846	442.36624	393.11429	-1423.55994	397.17084	394.56848	-1447.78015	112.55177	356.89944	-1476.91589	126.31215	273.78510	-1396.83923	74.01191	298.05573	-1569.42432	83.77612	401.16211	-1624.11780	123.13953	347.93820	-1605.77527	91.11530	294.15134	-1091.84131	1041.18115	184.75502	-1278.39722	998.22766	76.21027	-1174.49634	741.31848	34.86411	-1159.12781	665.80627	57.78244	-1141.01831	590.55145	73.22283	-1231.60596	658.57898	86.95476	-1128.55933	518.68768	91.93686	-1124.10693	519.80963	217.76274	-1056.29553	446.61374	78.87321	-1053.65479	401.79962	76.69530	-1116.43311	435.45969	88.78563	-1105.88428	392.00381	85.59116	-989.18823	109.86274	150.13152	-1019.25928	111.81137	238.32437	-927.93970	89.55939	220.48141	-1138.44397	41.94576	223.73573	-1157.97791	57.78750	169.70737	-1103.28040	43.50615	110.15408
1183	4.72800	-1100.30798	1040.36243	244.51154	-1308.24780	998.92993	315.26382	-1312.36475	737.31024	400.27817	-1343.94983	665.83588	386.77682	-1373.42017	598.16138	380.53262	-1410.99585	702.57312	365.16028	-1392.49695	554.31903	372.76956	-1408.65247	543.00989	245.38809	-1366.54675	425.59985	387.30975	-1381.06934	380.68954	390.27808	-1425.02771	441.64777	392.83694	-1431.81091	396.59320	394.21445	-1462.51782	112.44547	356.42792	-1490.56421	127.10077	273.23059	-1412.09680	72.64165	298.01859	-1585.19727	86.60996	399.82446	-1638.44617	127.43671	346.33810	-1620.49316	95.05516	292.54697	-1097.22412	1040.31738	185.15105	-1283.47717	997.32697	75.84208	-1178.69238	740.96613	34.79374	-1163.04456	665.48572	57.79681	-1144.51587	590.41791	73.18687	-1235.52673	657.93622	86.79448	-1131.58606	518.52008	91.91358	-1127.59570	519.70996	217.71533	-1058.75024	446.96973	78.94380	-1055.81311	402.15820	76.72834	-1118.88342	435.41922	88.66254	-1107.98987	392.01865	85.51117	-989.69189	110.48744	150.13651	-1019.82111	112.32119	238.30411	-928.76837	90.20865	220.52414	-1138.72681	41.89859	223.51727	-1158.16675	57.56716	169.59393	-1103.44543	43.45799	109.94576
1184	4.73200	-1105.88110	1039.42053	244.83133	-1314.14954	998.26550	315.12762	-1316.61584	735.92291	400.43716	-1348.09387	664.36444	387.00211	-1377.25879	596.60284	380.81683	-1415.24329	700.73407	365.25308	-1396.86719	552.94824	372.83215	-1413.29150	541.66034	244.99529	-1373.99573	423.73233	387.48923	-1389.45312	379.14996	390.42517	-1432.16528	440.90857	392.53607	-1439.83655	396.00070	393.87897	-1477.05212	112.52864	355.86404	-1504.02502	127.95893	272.56570	-1427.04187	71.53942	297.84659	-1600.52661	89.56094	398.40515	-1652.32263	131.90245	344.59842	-1634.86914	99.27305	290.86475	-1102.62817	1039.45813	185.55397	-1288.68201	996.47858	75.55393	-1182.97205	740.59778	34.73407	-1167.01086	665.17999	57.77023	-1148.17126	590.18146	73.16156	-1239.52295	657.32056	86.65564	-1134.68542	518.41699	91.83557	-1131.03259	519.61566	217.64188	-1061.36035	447.30347	79.00721	-1058.11511	402.53409	76.77216	-1121.48840	435.36374	88.69499	-1110.35010	392.08118	85.22387	-990.23468	111.10563	150.13133	-1020.37219	112.82851	238.24669	-928.72144	91.44452	220.49506	-1138.86426	41.83798	223.45013	-1158.36951	57.35262	169.50046	-1103.54736	43.39899	109.88045
1185	4.73600	-1111.49268	1038.48718	245.13341	-1321.48901	998.08636	315.30301	-1320.91479	734.60016	400.66455	-1352.25452	662.94165	387.24463	-1381.06323	595.00995	381.08972	-1419.99792	698.89514	365.09528	-1401.11011	551.51721	372.95459	-1417.55017	540.19531	244.85777	-1381.39758	421.80942	387.13126	-1398.21912	377.58331	390.09052	-1439.14807	440.22211	392.24341	-1447.79199	395.48883	393.51230	-1491.04370	112.78197	355.22073	-1517.02075	128.98343	271.83124	-1441.61694	70.61802	297.55750	-1615.41504	92.51946	396.87088	-1665.65564	136.40260	342.83295	-1648.54773	103.42291	289.06152	-1108.11853	1038.56384	185.98111	-1294.24573	995.75128	75.50143	-1187.36707	740.22644	34.65543	-1171.08167	664.89185	57.71158	-1151.05029	590.16705	72.07138	-1243.56213	656.65448	86.47573	-1137.94678	518.28577	91.77610	-1134.57397	519.73639	218.25500	-1064.03723	447.63644	79.04671	-1060.48950	402.91629	76.79462	-1124.11218	435.32971	88.58044	-1112.72351	392.08859	85.11116	-990.74744	111.78065	150.08910	-1020.96240	113.40721	238.20511	-929.61749	92.20381	220.48785	-1139.00281	41.76901	223.39552	-1158.58459	57.11811	169.40723	-1103.62842	43.33158	109.80905
1186	4.74000	-1117.09424	1037.62659	245.42924	-1327.42432	997.54895	315.07648	-1325.37756	733.32239	401.01505	-1356.34387	661.56219	387.46826	-1384.80127	593.52527	381.32755	-1423.93030	697.17743	365.68756	-1405.27710	550.16766	373.06271	-1421.87598	538.84546	244.68703	-1388.62109	420.08255	387.18881	-1406.35034	376.11472	390.06067	-1446.02515	439.54071	391.93701	-1455.50024	394.98306	393.10428	-1504.70630	113.15251	354.45782	-1529.75635	130.12053	271.05710	-1455.80908	69.87117	297.17056	-1629.83789	95.48883	395.14328	-1678.51831	140.89305	340.96970	-1661.97839	107.86529	287.16165	-1113.62488	1037.74353	186.37622	-1299.24219	995.05994	75.07987	-1191.78333	739.84662	34.61229	-1175.18152	664.56281	57.67187	-1153.53821	590.49384	71.45657	-1247.71362	656.01941	86.25974	-1141.27283	518.12042	91.70385	-1138.24426	519.60126	218.12352	-1066.90491	447.93661	79.16557	-1062.96533	403.28662	76.80897	-1127.12610	434.52802	87.33664	-1115.15149	392.10529	84.97070	-991.31879	112.49628	150.00365	-1021.58850	113.98096	238.10928	-929.66504	93.57209	220.40350	-1139.14331	41.69853	223.32999	-1158.82532	56.92503	169.28851	-1103.73840	43.26515	109.73827
1187	4.74400	-1122.73401	1036.74902	245.75520	-1333.47339	997.02222	314.81085	-1329.93311	732.13037	401.35382	-1360.64917	660.29889	387.73709	-1388.76770	592.10876	381.53381	-1428.42029	695.50342	365.99814	-1409.37756	549.02618	372.98178	-1426.09863	537.51971	244.48563	-1395.70667	418.25980	387.31302	-1414.28540	374.79376	390.00748	-1452.72974	438.92249	391.62427	-1463.18372	394.43661	392.70358	-1518.00720	113.62959	353.70859	-1541.89294	131.39388	270.23242	-1469.54407	69.32433	296.72763	-1643.84509	98.45335	393.37439	-1690.92664	145.33551	338.99170	-1674.72412	112.15548	285.11887	-1119.21997	1036.90222	186.80431	-1304.41003	994.22107	74.73392	-1196.30164	739.48425	34.55005	-1179.36694	664.27655	57.62297	-1158.65979	589.74042	71.92142	-1252.41711	655.49286	85.32619	-1144.67700	517.98285	91.64307	-1142.17334	519.40466	218.10295	-1069.79309	448.32208	79.13304	-1065.55981	403.65161	76.81476	-1129.88477	434.49377	87.21738	-1117.65137	392.06625	84.89181	-991.96277	113.26871	149.92184	-1022.30328	114.59209	238.00244	-930.17963	94.71310	220.32445	-1139.28931	41.65662	223.26755	-1159.04761	56.68166	169.17010	-1103.82495	43.20345	109.65704
